<svg version="1.1" id="Layer_1" xmlns="http://www.w3.org/2000/svg" xmlns:xlink="http://www.w3.org/1999/xlink" x="0px" y="0px" viewBox="0 0 142 60" style="enable-background:new 0 0 142 60;" xml:space="preserve">
<style type="text/css">
	.st0{fill:#504084;}
	.st1{fill:#DA521F;}
	.st2{fill:url(#SVGID_1_);}
	.st3{fill:url(#SVGID_2_);}
	.st4{fill:url(#SVGID_3_);}
	.st5{enable-background:new    ;}
	.st6{fill:#4D4F5B;}
</style>
<g>
	<path class="st0" d="M108.8,21c0,6.9,0,13.7,0,20.6c0,3.7,5.7,3.7,5.7,0c0-6.9,0-13.7,0-20.6C114.5,17.3,108.8,17.3,108.8,21
		L108.8,21z"></path>
	<path class="st0" d="M116.4,21c0,6.9,0,13.7,0,20.6c0,3.7,5.7,3.7,5.7,0c0-6.9,0-13.7,0-20.6C122.1,17.3,116.4,17.3,116.4,21
		L116.4,21z"></path>
	<path class="st1" d="M21,21c0,6.9,0,13.7,0,20.6c0,3.7,5.7,3.7,5.7,0c0-6.9,0-13.7,0-20.6C26.7,17.3,21,17.3,21,21z"></path>
	<path class="st1" d="M16,31.2c0.5-0.5,1-1.1,1.4-1.7c1.6-2.6,1-6.5-1.2-8.7s-5.5-2.8-8.4-2.5c-3,0.3-6.7,1.8-7.4,5.1
		c-0.1,0.3-0.1,0.5-0.1,0.8c-0.1,0.2-0.1,0.5-0.1,0.7C0,30.4,0,35.8,0.1,41.3c0.1,3.7,5.8,3.7,5.7,0c-0.1-5.4-0.1-10.9,0.1-16.3V25
		v-0.1c0.2-0.2,0.6-0.3,0.8-0.4c0.6-0.2,1.2-0.3,1.8-0.4c1.3-0.1,2.8,0,3.6,0.9c-0.1-0.1,0.2,0.3,0.3,0.5c0-0.1,0.1,0.6,0.1,0.6
		c0,0.2-0.1,0.7,0,0.5s0.1-0.1-0.1,0.2c0,0-0.1,0.1-0.2,0.2c-1,1.1-2.3,1.4-3.8,1.7c-2.7,0.7-2.7,4.8,0,5.5c1.2,0.3,2.3,0.7,3.4,1.3
		c0.2,0.1,0.5,0.4,0.5,0.3c0.1,0.3,0.2,0.9,0.4,1.1l0,0c-0.1,0.1-0.1,0.3-0.2,0.4c0-0.1-0.3,0.3-0.3,0.3c-0.1,0.1-0.1,0.1-0.4,0.3
		c-0.8,0.5-1.7,0.8-2.7,0.8c-3.7,0-3.7,5.7,0,5.7c4.1-0.1,8.9-2.6,9.2-7.1C18.6,35.2,17.6,32.5,16,31.2z M12.8,36.8
		C12.8,36.9,12.7,36.9,12.8,36.8L12.8,36.8z"></path>
	<path class="st1" d="M53.3,30.4c0-0.2,0-0.5,0-0.7c-0.2-2-0.9-3.9-2-5.5s-2.5-3-4.1-4c-0.8-0.5-1.7-0.9-2.6-1.3
		c-0.9-0.3-1.9-0.6-2.8-0.7c-1-0.1-2-0.1-3,0c-0.5,0.1-1,0.1-1.4,0.3c-0.2,0.1-0.5,0.2-0.7,0.3c-0.2,0.1-0.4,0.2-0.6,0.3
		c-1.7,0.9-3.1,2.1-4.2,3.5c-1.1,1.4-2,2.9-2.3,4.6c0.5-0.7,1-1.3,1.7-1.8c0.6-0.5,1.3-0.9,1.9-1.3c1.4-0.7,2.8-1.1,4.2-1.3
		c0.4,0,0.7-0.1,1-0.1c0.2,0,0.3,0,0.5-0.1c0.2,0,0.3-0.1,0.5-0.1c0.6-0.1,1.3-0.1,1.9,0c0.6,0.1,1.3,0.2,1.9,0.5
		c0.6,0.2,1.2,0.5,1.8,0.9c1.1,0.7,2.1,1.6,2.8,2.7s1.2,2.3,1.3,3.5c0,0.1,0,0.3,0,0.5s0,0.3,0,0.5c0,0.3,0,0.7-0.1,1
		c-0.1,0.6-0.2,1.3-0.4,1.9c-0.4,1.2-1.1,2.3-2.1,3.3c-0.2,0.2-0.5,0.5-0.7,0.7c-0.1,0.1-0.3,0.2-0.4,0.3l-0.2,0.1c0,0,0,0-0.1,0H45
		c-0.3,0.1-0.6,0.3-0.9,0.5c-0.3,0.1-0.6,0.3-1,0.4c-1.3,0.5-2.7,0.7-3.9,0.7c-0.6,0-1.2-0.1-1.7-0.3c-0.5-0.2-1.1-0.5-1.6-0.9
		c-1-0.7-1.9-1.8-2.2-2.8c-0.2-0.5-0.2-1-0.2-1.4c0-0.2,0.1-0.5,0.2-0.7c0.1-0.2,0.2-0.5,0.3-0.7c0.2-0.4,0.6-0.8,1-1.2
		c0.2-0.2,0.5-0.3,0.7-0.5c0.3-0.1,0.5-0.3,0.8-0.5c0.5-0.3,1.1-0.6,1.7-0.8c0.4-0.1,0.7-0.1,1.1-0.2c0.4-0.1,0.7-0.1,1.1-0.1
		c0.7,0,1.5,0,2.3,0.2c0.4,0.1,0.7,0.2,1.1,0.4c0.4,0.2,0.7,0.4,1.1,0.6c-0.1-0.2-0.2-0.3-0.4-0.5c-0.1-0.2-0.3-0.3-0.4-0.5
		c-0.3-0.3-0.6-0.6-0.9-0.9c-0.7-0.6-1.5-1-2.4-1.3c-0.8-0.3-1.7-0.6-2.6-0.7h-0.1H38c-0.1,0-0.1,0-0.2,0c-0.1,0-0.3,0-0.4,0
		c-0.3,0-0.5,0-0.8,0c-0.5,0-1,0.1-1.5,0.2s-1,0.3-1.4,0.5c-0.5,0.2-0.9,0.5-1.3,0.8c-0.8,0.6-1.6,1.5-2.2,2.4
		c-0.3,0.5-0.5,1-0.7,1.5s-0.3,1.1-0.3,1.6c-0.2,1,0,2.2,0.4,3.2s0.9,1.9,1.6,2.7c0.6,0.8,1.4,1.5,2.2,2.1s1.7,1.1,2.6,1.5
		c1,0.4,2,0.6,3,0.6c1,0.1,2,0,2.9-0.2c0.9-0.2,1.8-0.4,2.7-0.7c0.4-0.2,0.9-0.3,1.3-0.5c0.4-0.2,0.8-0.4,1.3-0.7l0.2-0.1
		c0.1,0,0.2-0.1,0.2-0.1c0.1-0.1,0.2-0.1,0.3-0.2c0.2-0.1,0.4-0.3,0.6-0.4c0.4-0.3,0.7-0.6,1.1-1c1.4-1.4,2.4-3,3.1-4.9
		c0.3-0.9,0.5-1.9,0.6-2.8c0.1-0.5,0.1-1,0.1-1.4C53.3,30.9,53.3,30.6,53.3,30.4z"></path>
	
		<linearGradient id="SVGID_1_" gradientUnits="userSpaceOnUse" x1="29.6544" y1="1029.75" x2="40.115" y2="1029.75" gradientTransform="matrix(1 0 0 1 0 -1018)">
		<stop offset="0" style="stop-color:#C2CF05"></stop>
		<stop offset="1" style="stop-color:#3C902E"></stop>
	</linearGradient>
	<path class="st2" d="M40.1,16.8c0,0,0.9-9-10.4-10C29.7,6.8,30.2,16.8,40.1,16.8z"></path>
	
		<linearGradient id="SVGID_2_" gradientUnits="userSpaceOnUse" x1="40.8172" y1="1027.713" x2="54.6172" y2="1027.713" gradientTransform="matrix(1 0 0 1 0 -1018)">
		<stop offset="0" style="stop-color:#C2CF05"></stop>
		<stop offset="1" style="stop-color:#3C902E"></stop>
	</linearGradient>
	<path class="st3" d="M40.9,16.9c0,0,12.5,1.3,13.8-14.5C54.7,2.5,40.9,3.1,40.9,16.9z"></path>
	
		<linearGradient id="SVGID_3_" gradientUnits="userSpaceOnUse" x1="80.6919" y1="1036.1" x2="93.5185" y2="1036.1" gradientTransform="matrix(1 0 0 1 0 -1018)">
		<stop offset="0" style="stop-color:#C2CF05"></stop>
		<stop offset="1" style="stop-color:#3C902E"></stop>
	</linearGradient>
	<path class="st4" d="M83.7,26.1c0,0,16.5-2.1,6.9-16.1C90.6,10,74.2,13,83.7,26.1z"></path>
	<path class="st0" d="M85.1,21.3c-0.1,0-0.2-0.1-0.2-0.1l-0.7-1.8c0-0.1,0-0.2,0.1-0.3c0.1,0,0.2,0,0.3,0.1l0.8,1.8
		C85.4,21.1,85.3,21.3,85.1,21.3C85.2,21.3,85.2,21.3,85.1,21.3z"></path>
	<path class="st0" d="M86.4,20.6c-0.1,0-0.2-0.1-0.2-0.1c0-0.1,0-0.2,0.1-0.3l1.8-0.8c0.1,0,0.2,0,0.3,0.1c0,0.1,0,0.2-0.1,0.3
		L86.4,20.6C86.5,20.6,86.5,20.6,86.4,20.6z"></path>
	<path class="st0" d="M86.2,22.5c-0.1,0-0.2-0.1-0.2-0.1c0-0.1,0-0.2,0.1-0.3l1.8-0.8c0.1,0,0.2,0,0.3,0.1c0,0.1,0,0.2-0.1,0.3
		L86.2,22.5C86.2,22.4,86.2,22.5,86.2,22.5z"></path>
	<path class="st0" d="M85.4,24.2c-0.1,0-0.2-0.1-0.2-0.1c0-0.1,0-0.2,0.1-0.3l1.8-0.8c0.1,0,0.2,0,0.3,0.1c0,0.1,0,0.2-0.1,0.3
		L85.4,24.2L85.4,24.2z"></path>
	<path class="st0" d="M84.4,23c-0.1,0-0.2-0.1-0.2-0.1l-0.8-1.8c0-0.1,0-0.2,0.1-0.3c0.1,0,0.2,0,0.3,0.1l0.8,1.8
		C84.6,22.8,84.6,22.9,84.4,23L84.4,23z"></path>
	<path class="st0" d="M87.2,18.1c-1.2-0.3-3.4,4.3-4,5.1l-5.6,11.1l-3.1-11.5c-0.3-1.1-0.5-1.9-0.7-2.4s-0.6-1-1.1-1.5
		s-1.3-0.7-2.2-0.7c-0.9,0-1.7,0.2-2.2,0.7c-0.5,0.4-0.9,1-1.2,1.6c-0.2,0.6-0.5,1.3-0.7,2.4l-3.1,11.5L60.5,22
		c-0.2-1.1-0.5-2-0.9-2.6c-0.4-0.7-1.1-1.1-2.2-1.1c-0.8,0-1.4,0.3-2,0.8c-0.5,0.5-0.8,1.2-0.8,1.9c0,0.5,0.1,1.3,0.4,2.3l4,16.3
		c0.1,0.5,0.3,1,0.4,1.6c0.2,0.6,0.4,1.1,0.6,1.6c0.3,0.5,0.7,0.9,1.1,1.1c0.5,0.3,1,0.4,1.7,0.4c0.9,0,1.6-0.2,2.1-0.7
		c0.5-0.4,0.9-0.9,1.1-1.5c0.2-0.5,0.4-1.3,0.7-2.4l3.5-13l3.5,13l0,0c0.3,1.2,0.6,2,0.8,2.4c0.2,0.5,0.6,1,1.1,1.5
		c0.5,0.4,1.2,0.7,2.1,0.7s1.6-0.2,2.1-0.7c0.5-0.4,0.8-1,1.1-1.5c0.2-0.5,0.4-1.3,0.7-2.5l4.6-15.5C86.6,22.9,87.9,18.3,87.2,18.1z"></path>
	<path class="st0" d="M105.4,38c-0.4-0.4-0.9-0.5-1.6-0.5c-0.6,0-1.1,0.2-1.4,0.4l0,0c-0.6,0.6-1.1,1-1.5,1.3
		c-0.4,0.3-0.8,0.6-1.2,0.9c-0.4,0.3-0.8,0.5-1.2,0.6c-0.4,0.1-0.9,0.2-1.4,0.2c-0.8,0-1.5-0.2-2.1-0.6s-1.1-0.9-1.5-1.7
		c-0.3-0.6-0.5-1.3-0.6-2.1h8.9c1.4,0,2.4-0.2,3.2-0.6c0.9-0.5,1.3-1.4,1.3-2.8c0-1.4-0.4-2.8-1.1-4.1c-0.7-1.3-1.8-2.5-3.2-3.3
		c-1.4-0.8-3.2-1.3-5.1-1.3c-1.5,0-2.9,0.2-4.2,0.7c-1.3,0.5-2.3,1.2-3.2,2.1c-0.9,0.9-1.5,2-2,3.3c-0.4,1.3-0.7,2.7-0.7,4.1
		c0,3.2,0.9,5.7,2.7,7.6c1.8,1.9,4.4,2.8,7.6,2.8c1.4,0,2.7-0.2,3.8-0.6c1.1-0.4,2-0.8,2.8-1.4c0.7-0.6,1.3-1.2,1.7-1.8
		c0.4-0.7,0.6-1.3,0.6-1.8C106,38.9,105.8,38.4,105.4,38z M96.7,28.8c1.1,0,2,0.3,2.7,1.1c0.6,0.6,1,1.6,1.1,2.8H93
		c0.2-1.2,0.6-2.1,1.2-2.8C94.8,29.2,95.6,28.8,96.7,28.8z"></path>
	<g class="st5">
		<path class="st6" d="M2.2,47.9v7.6h4.3c0.3,0,0.6,0.1,0.8,0.2c0.2,0.1,0.3,0.4,0.3,0.6c0,0.3-0.1,0.5-0.3,0.6s-0.4,0.2-0.8,0.2
			H1.4c-0.5,0-0.8-0.1-1-0.3c-0.2-0.2-0.3-0.5-0.3-1v-8c0-0.4,0.1-0.7,0.3-1c0.2-0.2,0.4-0.3,0.8-0.3c0.3,0,0.6,0.1,0.8,0.3
			C2.2,47,2.2,47.5,2.2,47.9z"></path>
		<path class="st6" d="M16.7,56.3c-0.5,0.4-0.9,0.6-1.4,0.8c-0.5,0.2-0.9,0.3-1.4,0.3s-0.9-0.1-1.3-0.3c-0.4-0.2-0.7-0.5-0.9-0.8
			c-0.2-0.3-0.3-0.7-0.3-1.1c0-0.5,0.2-1,0.5-1.4s0.8-0.6,1.4-0.8c0.1,0,0.4-0.1,0.9-0.2c0.5-0.1,0.9-0.2,1.3-0.3s0.7-0.2,1.1-0.3
			c0-0.5-0.1-0.9-0.3-1.1c-0.2-0.2-0.6-0.4-1.1-0.4s-0.9,0.1-1.1,0.2c-0.2,0.1-0.5,0.3-0.6,0.6c-0.2,0.3-0.3,0.5-0.4,0.5
			c-0.1,0.3-0.3,0.4-0.5,0.4c-0.2,0-0.4-0.1-0.6-0.2s-0.2-0.3-0.2-0.5c0-0.3,0.1-0.7,0.4-1c0.3-0.3,0.6-0.6,1.1-0.8
			c0.5-0.2,1.1-0.3,1.9-0.3c0.9,0,1.5,0.1,2,0.3c0.5,0.2,0.8,0.5,1,1c0.2,0.4,0.3,1,0.3,1.7c0,0.5,0,0.8,0,1.2s0,0.7,0,1.1
			c0,0.4,0.1,0.7,0.2,1.1c0.1,0.4,0.2,0.7,0.2,0.8c0,0.2-0.1,0.4-0.3,0.5c-0.2,0.2-0.4,0.2-0.6,0.2s-0.4-0.1-0.6-0.3
			C17.2,56.9,17,56.8,16.7,56.3z M16.6,53.5c-0.3,0.1-0.7,0.2-1.2,0.3s-0.9,0.2-1.1,0.3s-0.4,0.2-0.6,0.3c-0.2,0.2-0.3,0.4-0.3,0.7
			c0,0.3,0.1,0.5,0.3,0.8c0.2,0.2,0.5,0.3,0.9,0.3s0.7-0.1,1.1-0.3c0.4-0.2,0.6-0.4,0.7-0.7c0.2-0.3,0.3-0.8,0.3-1.5L16.6,53.5
			L16.6,53.5z"></path>
		<path class="st6" d="M25.1,47.8v3c0.4-0.4,0.7-0.7,1.1-0.9c0.4-0.2,0.8-0.3,1.4-0.3c0.6,0,1.2,0.2,1.7,0.5
			c0.5,0.3,0.9,0.7,1.1,1.3c0.3,0.6,0.4,1.3,0.4,2.1c0,0.6-0.1,1.1-0.2,1.6s-0.4,0.9-0.7,1.3c-0.3,0.4-0.6,0.6-1,0.8
			c-0.4,0.2-0.9,0.3-1.3,0.3c-0.3,0-0.6,0-0.8-0.1s-0.5-0.2-0.7-0.3s-0.3-0.2-0.5-0.4c-0.1-0.1-0.3-0.3-0.5-0.6v0.2
			c0,0.4-0.1,0.6-0.3,0.8c-0.2,0.2-0.4,0.3-0.7,0.3s-0.5-0.1-0.7-0.3c-0.2-0.2-0.2-0.5-0.2-0.8v-8.5c0-0.4,0.1-0.7,0.2-0.9
			c0.2-0.2,0.4-0.3,0.7-0.3c0.3,0,0.5,0.1,0.7,0.3C25,47,25.1,47.4,25.1,47.8z M25.2,53.5c0,0.8,0.2,1.4,0.5,1.8
			c0.4,0.4,0.8,0.6,1.4,0.6c0.5,0,0.9-0.2,1.3-0.6c0.4-0.4,0.5-1,0.5-1.8c0-0.5-0.1-1-0.2-1.3c-0.1-0.4-0.4-0.7-0.6-0.9
			c-0.3-0.2-0.6-0.3-0.9-0.3c-0.4,0-0.7,0.1-1,0.3c-0.3,0.2-0.5,0.5-0.7,0.9C25.2,52.5,25.2,53,25.2,53.5z"></path>
		<path class="st6" d="M42.6,53.5c0,0.6-0.1,1.1-0.3,1.6s-0.4,0.9-0.8,1.3c-0.4,0.4-0.7,0.6-1.2,0.8c-0.5,0.2-1,0.3-1.6,0.3
			s-1.1-0.1-1.6-0.3c-0.5-0.2-0.9-0.5-1.2-0.8c-0.3-0.3-0.6-0.8-0.8-1.3s-0.3-1-0.3-1.6s0.1-1.1,0.3-1.6s0.4-0.9,0.8-1.3
			c0.3-0.3,0.7-0.6,1.2-0.8c0.5-0.2,1-0.3,1.6-0.3s1.1,0.1,1.6,0.3c0.5,0.2,0.9,0.5,1.2,0.8c0.3,0.3,0.6,0.8,0.8,1.3
			S42.6,52.9,42.6,53.5z M40.7,53.5c0-0.8-0.2-1.4-0.5-1.8c-0.3-0.4-0.8-0.7-1.4-0.7c-0.4,0-0.7,0.1-1,0.3c-0.3,0.2-0.5,0.5-0.7,0.9
			s-0.2,0.8-0.2,1.3s0.1,1,0.2,1.3c0.2,0.4,0.4,0.7,0.7,0.9c0.3,0.2,0.6,0.3,1,0.3c0.6,0,1.1-0.2,1.4-0.7
			C40.5,54.9,40.7,54.3,40.7,53.5z"></path>
		<path class="st6" d="M49.1,54.7v1.6c0,0.4-0.1,0.7-0.3,0.9c-0.2,0.2-0.4,0.3-0.7,0.3s-0.5-0.1-0.7-0.3c-0.2-0.2-0.3-0.5-0.3-0.9
			v-5.4c0-0.9,0.3-1.3,0.9-1.3c0.3,0,0.6,0.1,0.7,0.3c0.1,0.2,0.2,0.5,0.2,0.9c0.2-0.4,0.5-0.7,0.7-0.9c0.2-0.2,0.6-0.3,1-0.3
			s0.8,0.1,1.2,0.3c0.4,0.2,0.6,0.5,0.6,0.8c0,0.2-0.1,0.4-0.2,0.6s-0.3,0.2-0.5,0.2c-0.1,0-0.2,0-0.5-0.1s-0.5-0.1-0.7-0.1
			c-0.3,0-0.5,0.1-0.7,0.2c-0.2,0.1-0.3,0.4-0.4,0.7c-0.1,0.3-0.2,0.6-0.2,1C49.1,53.5,49.1,54,49.1,54.7z"></path>
		<path class="st6" d="M61.1,56.3c-0.5,0.4-0.9,0.6-1.4,0.8c-0.5,0.2-0.9,0.3-1.5,0.3c-0.5,0-0.9-0.1-1.3-0.3
			c-0.4-0.2-0.7-0.5-0.9-0.8c-0.2-0.3-0.3-0.7-0.3-1.1c0-0.5,0.2-1,0.5-1.4s0.8-0.6,1.4-0.8c0.1,0,0.4-0.1,0.9-0.2
			c0.5-0.1,0.9-0.2,1.3-0.3s0.7-0.2,1.1-0.3c0-0.5-0.1-0.9-0.3-1.1c-0.2-0.2-0.6-0.4-1.1-0.4s-0.9,0.1-1.1,0.2
			c-0.2,0.1-0.5,0.3-0.6,0.6c-0.2,0.3-0.3,0.5-0.4,0.5c-0.1,0.1-0.2,0.1-0.5,0.1c-0.2,0-0.4-0.1-0.6-0.2c-0.2-0.1-0.2-0.3-0.2-0.5
			c0-0.3,0.1-0.7,0.4-1c0.3-0.3,0.6-0.6,1.1-0.8c0.5-0.2,1.1-0.3,1.9-0.3c0.9,0,1.5,0.1,2,0.3c0.5,0.2,0.8,0.5,1,1
			c0.2,0.4,0.3,1,0.3,1.7c0,0.5,0,0.8,0,1.2s0,0.7,0,1.1s0.1,0.7,0.2,1.1s0.2,0.7,0.2,0.8c0,0.2-0.1,0.4-0.3,0.5
			c-0.2,0.2-0.4,0.2-0.6,0.2s-0.4-0.1-0.6-0.3C61.5,56.9,61.3,56.8,61.1,56.3z M60.9,53.5c-0.3,0.1-0.7,0.2-1.2,0.3
			s-0.9,0.2-1.1,0.3s-0.4,0.2-0.6,0.3c-0.2,0.2-0.3,0.4-0.3,0.7c0,0.3,0.1,0.5,0.3,0.8c0.2,0.2,0.5,0.3,0.9,0.3s0.7-0.1,1.1-0.3
			c0.4-0.2,0.6-0.4,0.7-0.7c0.2-0.3,0.3-0.8,0.3-1.5L60.9,53.5L60.9,53.5z"></path>
		<path class="st6" d="M67.5,49.8h0.2v-1.2c0-0.3,0-0.6,0-0.7c0-0.1,0.1-0.3,0.1-0.5c0.1-0.1,0.2-0.2,0.3-0.3s0.3-0.1,0.5-0.1
			s0.5,0.1,0.7,0.3c0.1,0.1,0.2,0.3,0.3,0.5c0.1,0.2,0.1,0.4,0.1,0.8v1.3h0.7c0.3,0,0.5,0.1,0.6,0.2s0.2,0.3,0.2,0.5
			c0,0.3-0.1,0.4-0.3,0.5c-0.2,0.1-0.5,0.2-0.9,0.2h-0.4v3.6c0,0.3,0,0.5,0,0.7c0,0.2,0.1,0.3,0.2,0.4c0.1,0.1,0.2,0.2,0.5,0.2
			c0.1,0,0.3,0,0.5-0.1c0.2,0,0.3-0.1,0.5-0.1s0.3,0.1,0.4,0.2s0.2,0.3,0.2,0.5c0,0.3-0.2,0.6-0.5,0.7c-0.3,0.1-0.9,0.1-1.5,0.1
			s-1.1-0.1-1.4-0.3c-0.3-0.2-0.5-0.5-0.6-0.8c-0.1-0.4-0.1-0.8-0.1-1.4v-3.7h-0.3c-0.3,0-0.5-0.1-0.6-0.2c-0.1-0.1-0.2-0.3-0.2-0.5
			c0-0.2,0.1-0.4,0.2-0.5C67,49.8,67.2,49.8,67.5,49.8z"></path>
		<path class="st6" d="M82.8,53.5c0,0.6-0.1,1.1-0.3,1.6c-0.2,0.5-0.4,0.9-0.8,1.3c-0.3,0.4-0.8,0.6-1.2,0.8c-0.5,0.2-1,0.3-1.6,0.3
			s-1.1-0.1-1.6-0.3c-0.5-0.2-0.9-0.5-1.2-0.8c-0.3-0.3-0.6-0.8-0.8-1.3c-0.2-0.5-0.3-1-0.3-1.6s0.1-1.1,0.3-1.6s0.4-0.9,0.8-1.3
			c0.3-0.3,0.7-0.6,1.2-0.8c0.5-0.2,1-0.3,1.6-0.3s1.1,0.1,1.6,0.3c0.5,0.2,0.9,0.5,1.2,0.8c0.3,0.3,0.6,0.8,0.8,1.3
			S82.8,52.9,82.8,53.5z M80.9,53.5c0-0.8-0.2-1.4-0.5-1.8C80.1,51.3,79.6,51,79,51c-0.4,0-0.7,0.1-1,0.3c-0.3,0.2-0.5,0.5-0.7,0.9
			s-0.2,0.8-0.2,1.3s0.1,1,0.2,1.3c0.2,0.4,0.4,0.7,0.7,0.9c0.3,0.2,0.6,0.3,1,0.3c0.6,0,1.1-0.2,1.4-0.7S80.9,54.3,80.9,53.5z"></path>
		<path class="st6" d="M89.3,54.7v1.6c0,0.4-0.1,0.7-0.3,0.9c-0.2,0.2-0.4,0.3-0.7,0.3c-0.3,0-0.5-0.1-0.7-0.3
			c-0.2-0.2-0.3-0.5-0.3-0.9v-5.4c0-0.9,0.3-1.3,0.9-1.3c0.3,0,0.6,0.1,0.7,0.3c0.1,0.2,0.2,0.5,0.2,0.9c0.2-0.4,0.5-0.7,0.7-0.9
			c0.2-0.2,0.6-0.3,1-0.3s0.8,0.1,1.2,0.3c0.4,0.2,0.6,0.5,0.6,0.8c0,0.2-0.1,0.4-0.2,0.6s-0.3,0.2-0.5,0.2c-0.1,0-0.2,0-0.5-0.1
			s-0.5-0.1-0.7-0.1c-0.3,0-0.5,0.1-0.7,0.2s-0.3,0.4-0.4,0.7c-0.1,0.3-0.2,0.6-0.2,1C89.3,53.5,89.3,54,89.3,54.7z"></path>
		<path class="st6" d="M97.7,48.7c-0.3,0-0.5-0.1-0.7-0.2c-0.2-0.1-0.3-0.4-0.3-0.7c0-0.3,0.1-0.5,0.3-0.7c0.2-0.2,0.4-0.3,0.7-0.3
			c0.3,0,0.5,0.1,0.7,0.2c0.2,0.2,0.3,0.4,0.3,0.7c0,0.3-0.1,0.5-0.3,0.7C98.2,48.5,98,48.7,97.7,48.7z M98.7,50.7v5.6
			c0,0.4-0.1,0.7-0.3,0.9c-0.2,0.2-0.4,0.3-0.7,0.3c-0.3,0-0.5-0.1-0.7-0.3c-0.2-0.2-0.3-0.5-0.3-0.9v-5.6c0-0.4,0.1-0.7,0.3-0.9
			c0.2-0.2,0.4-0.3,0.7-0.3c0.3,0,0.5,0.1,0.7,0.3C98.6,50,98.7,50.3,98.7,50.7z"></path>
		<path class="st6" d="M109.1,53.9h-3.8c0,0.4,0.1,0.8,0.3,1.2c0.2,0.3,0.4,0.6,0.7,0.8c0.3,0.2,0.6,0.3,1,0.3c0.2,0,0.4,0,0.6-0.1
			s0.4-0.1,0.6-0.3c0.2-0.1,0.3-0.2,0.5-0.4c0.2-0.1,0.3-0.3,0.6-0.5c0.1-0.1,0.2-0.1,0.4-0.1c0.2,0,0.4,0.1,0.5,0.2
			c0.1,0.1,0.2,0.3,0.2,0.5c0,0.2-0.1,0.4-0.2,0.6s-0.3,0.5-0.6,0.7c-0.3,0.2-0.6,0.4-1,0.5s-0.9,0.2-1.4,0.2
			c-1.2,0-2.2-0.4-2.9-1.1c-0.7-0.7-1-1.7-1-2.9c0-0.6,0.1-1.1,0.3-1.6c0.2-0.5,0.4-0.9,0.7-1.3c0.3-0.4,0.7-0.6,1.2-0.8
			c0.5-0.2,1-0.3,1.6-0.3c0.8,0,1.4,0.2,2,0.5c0.5,0.3,0.9,0.7,1.2,1.2c0.3,0.5,0.4,1,0.4,1.6c0,0.5-0.1,0.8-0.4,0.9
			C110,53.9,109.6,53.9,109.1,53.9z M105.3,52.8h3.5c0-0.7-0.2-1.2-0.5-1.5c-0.3-0.3-0.7-0.5-1.2-0.5s-0.9,0.2-1.2,0.5
			C105.6,51.7,105.3,52.3,105.3,52.8z"></path>
		<path class="st6" d="M121.5,54.9c0,0.5-0.1,1-0.4,1.4c-0.3,0.4-0.6,0.7-1.2,0.9c-0.5,0.2-1.1,0.3-1.9,0.3c-0.7,0-1.3-0.1-1.8-0.3
			c-0.5-0.2-0.9-0.5-1.1-0.8c-0.2-0.3-0.4-0.6-0.4-1c0-0.2,0.1-0.4,0.2-0.5c0.2-0.2,0.3-0.2,0.6-0.2c0.2,0,0.4,0,0.5,0.1
			s0.2,0.2,0.3,0.4c0.2,0.3,0.4,0.6,0.7,0.8c0.3,0.2,0.7,0.3,1.1,0.3s0.7-0.1,1-0.3c0.2-0.2,0.4-0.4,0.4-0.6c0-0.3-0.1-0.6-0.4-0.7
			c-0.3-0.2-0.7-0.3-1.3-0.4c-0.7-0.2-1.2-0.3-1.6-0.5c-0.4-0.2-0.8-0.4-1-0.7c-0.3-0.3-0.4-0.7-0.4-1.1c0-0.4,0.1-0.8,0.3-1.1
			c0.2-0.3,0.6-0.6,1-0.8c0.5-0.2,1-0.3,1.6-0.3c0.5,0,1,0.1,1.4,0.2s0.7,0.2,1,0.4c0.3,0.2,0.5,0.4,0.6,0.6
			c0.1,0.2,0.2,0.4,0.2,0.6c0,0.2-0.1,0.4-0.2,0.5c-0.1,0.1-0.4,0.2-0.6,0.2c-0.2,0-0.4-0.1-0.5-0.2c-0.1-0.1-0.3-0.3-0.5-0.5
			c-0.1-0.2-0.3-0.3-0.5-0.5c-0.2-0.1-0.5-0.2-0.8-0.2c-0.4,0-0.6,0.1-0.9,0.2c-0.3,0.1-0.3,0.3-0.3,0.6c0,0.2,0.1,0.4,0.3,0.5
			c0.2,0.1,0.4,0.2,0.7,0.3c0.3,0.1,0.7,0.2,1.2,0.3c0.6,0.1,1.1,0.3,1.5,0.5c0.4,0.2,0.7,0.4,0.9,0.7
			C121.4,54.3,121.5,54.5,121.5,54.9z"></path>
	</g>
</g>
</svg>
